<?xml version="1.0" encoding="utf-8"?>
<!-- Generator: Adobe Illustrator 25.4.1, SVG Export Plug-In . SVG Version: 6.00 Build 0)  -->
<svg version="1.1" id="Layer_1" xmlns="http://www.w3.org/2000/svg" xmlns:xlink="http://www.w3.org/1999/xlink" x="0px" y="0px"
	 viewBox="0 0 1292 440" style="enable-background:new 0 0 1292 440;" xml:space="preserve">
<style type="text/css">
	.st0{stroke:#000000;stroke-miterlimit:10;}
	.st1{clip-path:url(#SVGID_00000097488237831266834970000018313930013399449738_);fill:#F7F8F9;}
	.st2{clip-path:url(#SVGID_00000032610198879916694090000006454734541189982890_);}
	.st3{clip-path:url(#SVGID_00000026881267325171772610000007460394922080668817_);fill:#F7F8F9;}
	.st4{clip-path:url(#SVGID_00000130609982752314489820000006230317468698639262_);fill:#F7F8F9;}
	.st5{clip-path:url(#SVGID_00000179612372782153097440000013329641798766448000_);fill:#F7F8F9;}
	.st6{clip-path:url(#SVGID_00000082340512493895291300000001443397214151991204_);fill:#F7F8F9;}
	.st7{clip-path:url(#SVGID_00000169529542709871394460000011699086192075833758_);fill:#B90AF0;}
	.st8{clip-path:url(#SVGID_00000160903892907031691080000000118910952560467127_);fill:#F7F8F9;}
	.st9{clip-path:url(#SVGID_00000139281988333380303190000005996305475296072581_);}
	.st10{clip-path:url(#SVGID_00000008130714624487977760000011528203623138759340_);fill:#F7F8F9;}
	.st11{clip-path:url(#SVGID_00000116925730986397270160000016465541102532797091_);fill:#F7F8F9;}
	.st12{clip-path:url(#SVGID_00000074435603055638161780000016864723990126832265_);fill:#F7F8F9;}
	.st13{clip-path:url(#SVGID_00000136386154923817708760000010082132085151673525_);fill:#F7F8F9;}
	.st14{clip-path:url(#SVGID_00000101796059877084565930000016079022660933089439_);fill:#B90AF0;}
</style>
<g id="Artwork_5_00000067200003304592795000000003670500765105612430_">
	<path class="st0" d="M1247.5,439.5H44.5c-24.3,0-44-19.7-44-44v-351c0-24.3,19.7-44,44-44h1203c24.3,0,44,19.7,44,44v351
		C1291.5,419.8,1271.8,439.5,1247.5,439.5z"/>
	<g>
		<g>
			<defs>
				<rect id="SVGID_1_" x="127.5" y="73.5" width="1000" height="272.3"/>
			</defs>
			<clipPath id="SVGID_00000130627267316194622490000011403148583707514527_">
				<use xlink:href="#SVGID_1_"  style="overflow:visible;"/>
			</clipPath>
			<polygon style="clip-path:url(#SVGID_00000130627267316194622490000011403148583707514527_);fill:#F7F8F9;" points="479.5,128.1 
				532.1,128.1 471.6,318.5 408,318.5 347.5,128.1 400.1,128.1 437.8,260.3 441.7,260.3 			"/>
		</g>
		<g>
			<defs>
				<rect id="SVGID_00000044890577451891982240000001026452132904243126_" x="127.5" y="73.5" width="1000" height="272.3"/>
			</defs>
			<clipPath id="SVGID_00000124150198075371746040000000084463016139761810_">
				<use xlink:href="#SVGID_00000044890577451891982240000001026452132904243126_"  style="overflow:visible;"/>
			</clipPath>
			<g style="clip-path:url(#SVGID_00000124150198075371746040000000084463016139761810_);">
				<g>
					<defs>
						<rect id="SVGID_00000031169921319122210880000000442121311587125405_" x="127.5" y="73.5" width="1000" height="272.3"/>
					</defs>
					<clipPath id="SVGID_00000176043610336115235580000015510446578712817586_">
						<use xlink:href="#SVGID_00000031169921319122210880000000442121311587125405_"  style="overflow:visible;"/>
					</clipPath>
					<path style="clip-path:url(#SVGID_00000176043610336115235580000015510446578712817586_);fill:#F7F8F9;" d="M696.6,190.8v51
						H587.5v4.8c0,28.1,11,34.1,40.1,34.1c19.5,0,47.9-2.4,62.5-4.8c0.2,0,0.3,0.1,0.3,0.3v42c0,0.1-0.1,0.2-0.2,0.3
						c-16.5,2.4-43.9,4.4-65.4,4.4c-46.3,0-89.1-15.7-89.1-72.3v-59.8c0-39.4,20.4-67.1,80.9-67.1
						C677,123.7,696.6,151.4,696.6,190.8 M644.7,204.8c0.3,0,0.5-0.2,0.5-0.5v-11.2c0-16.5-4.3-27.3-28.7-27.3
						c-20,0-29.1,6.8-29.1,28.1v10.4c0,0.3,0.2,0.5,0.5,0.5H644.7z"/>
				</g>
				<g>
					<defs>
						<rect id="SVGID_00000116216447740877020340000012443764189700942762_" x="127.5" y="73.5" width="1000" height="272.3"/>
					</defs>
					<clipPath id="SVGID_00000103977626631354208090000000787626750774770603_">
						<use xlink:href="#SVGID_00000116216447740877020340000012443764189700942762_"  style="overflow:visible;"/>
					</clipPath>
					<path style="clip-path:url(#SVGID_00000103977626631354208090000000787626750774770603_);fill:#F7F8F9;" d="M797.6,322.9
						c-42,0-78.2-14.9-78.2-66.7v-63.5c0-39.4,18.1-69.1,76.6-69.1c13,0,54.2,4,54.2,4v42.2c0,0-29.8-4-46.3-4
						c-19.2,0-32.6,5.2-32.6,35.3v46.6c0,30.5,9,32.9,34.2,32.9c16.5,0,48.3-4.4,48.3-4.4v41.4C853.7,317.7,829,322.9,797.6,322.9"
						/>
				</g>
				<g>
					<defs>
						<rect id="SVGID_00000170273379394981086270000010575492601335476413_" x="127.5" y="73.5" width="1000" height="272.3"/>
					</defs>
					<clipPath id="SVGID_00000016797414258837468990000004780860249891413663_">
						<use xlink:href="#SVGID_00000170273379394981086270000010575492601335476413_"  style="overflow:visible;"/>
					</clipPath>
					<path style="clip-path:url(#SVGID_00000016797414258837468990000004780860249891413663_);fill:#F7F8F9;" d="M995.9,319.3
						c-7.5,2-29.1,3.2-36.5,3.2c-33.4,0-59.3-18.5-59.3-59.8v-96h-27.5v-38.6h27.5V73.5h27.7H952v54.6h45.2v38.6H952v73.9
						c0,21.7-1.2,36.1,19.6,36.1c8.6,0,19.2-1.2,24.3-2V319.3z"/>
				</g>
				<g>
					<defs>
						<rect id="SVGID_00000099656358563705910450000002690289341814594724_" x="127.5" y="73.5" width="1000" height="272.3"/>
					</defs>
					<clipPath id="SVGID_00000041288395798646388020000007722700707705370251_">
						<use xlink:href="#SVGID_00000099656358563705910450000002690289341814594724_"  style="overflow:visible;"/>
					</clipPath>
					<path style="clip-path:url(#SVGID_00000041288395798646388020000007722700707705370251_);fill:#F7F8F9;" d="M1019.9,318.5
						V128.1h51.8v44.2h2c0,0,7.9-43.8,53.8-46.2v56.6c-41.6-0.8-54.6,34.9-55.8,37.8v98H1019.9z"/>
				</g>
				<g>
					<defs>
						<rect id="SVGID_00000168796959696137521170000017175407123486262668_" x="127.5" y="73.5" width="1000" height="272.3"/>
					</defs>
					<clipPath id="SVGID_00000125579004622226492600000005379108297750294183_">
						<use xlink:href="#SVGID_00000168796959696137521170000017175407123486262668_"  style="overflow:visible;"/>
					</clipPath>
					<path style="clip-path:url(#SVGID_00000125579004622226492600000005379108297750294183_);fill:#B90AF0;" d="M316.5,342
						l-17.2-72.1c-0.2-1-1-1.8-2.1-2.2c-4.1-1.5-21.3-7.2-28.3-26.5l0,0c-11.2-30.8-29.1-95-38.2-140.4h-17.4
						c-9.1,45.4-27,109.5-38.2,140.4c-7,19.3-24.3,25-28.3,26.5c-1.1,0.4-1.9,1.3-2.3,2.2L127.6,342c-0.7,2,1.2,3.9,3.7,3.8
						c4-0.1,19.2-1.6,26.5-7.3c18.1-14.4,33.8-34.5,56.4-39.1c4.3-0.9,8.3-1.1,12.1-0.8c23.8,1.9,40.3,24.3,59.9,39.8
						c7.3,5.8,22.5,7.2,26.4,7.3C315.1,345.9,317,344,316.5,342"/>
				</g>
			</g>
		</g>
	</g>
</g>
<g>
	<g>
		<defs>
			<rect id="SVGID_00000115476123893302211050000001219001334703151025_" x="127.3" y="73.8" width="1000" height="272.3"/>
		</defs>
		<clipPath id="SVGID_00000099638113430253724120000016337783766105572008_">
			<use xlink:href="#SVGID_00000115476123893302211050000001219001334703151025_"  style="overflow:visible;"/>
		</clipPath>
		<polygon style="clip-path:url(#SVGID_00000099638113430253724120000016337783766105572008_);fill:#F7F8F9;" points="479.3,128.4 
			531.9,128.4 471.4,318.8 407.8,318.8 347.3,128.4 399.9,128.4 437.6,260.6 441.5,260.6 		"/>
	</g>
	<g>
		<defs>
			<rect id="SVGID_00000089554988599366808390000007009303114655690938_" x="127.3" y="73.8" width="1000" height="272.3"/>
		</defs>
		<clipPath id="SVGID_00000183968642462333893340000007723804858901700755_">
			<use xlink:href="#SVGID_00000089554988599366808390000007009303114655690938_"  style="overflow:visible;"/>
		</clipPath>
		<g style="clip-path:url(#SVGID_00000183968642462333893340000007723804858901700755_);">
			<g>
				<defs>
					<rect id="SVGID_00000062192442833533130770000007880852881124523137_" x="127.3" y="73.8" width="1000" height="272.3"/>
				</defs>
				<clipPath id="SVGID_00000125600328402716561430000013403471429185488296_">
					<use xlink:href="#SVGID_00000062192442833533130770000007880852881124523137_"  style="overflow:visible;"/>
				</clipPath>
				<path style="clip-path:url(#SVGID_00000125600328402716561430000013403471429185488296_);fill:#F7F8F9;" d="M696.4,191.1v51
					H587.3v4.8c0,28.1,11,34.1,40.1,34.1c19.5,0,47.9-2.4,62.5-4.8c0.2,0,0.3,0.1,0.3,0.3v42c0,0.1-0.1,0.2-0.2,0.3
					c-16.5,2.4-43.9,4.4-65.4,4.4c-46.3,0-89.1-15.7-89.1-72.3v-59.8c0-39.4,20.4-67.1,80.9-67.1C676.8,124,696.4,151.7,696.4,191.1
					 M644.5,205.1c0.3,0,0.5-0.2,0.5-0.5v-11.2c0-16.5-4.3-27.3-28.7-27.3c-20,0-29.1,6.8-29.1,28.1v10.4c0,0.3,0.2,0.5,0.5,0.5
					H644.5z"/>
			</g>
			<g>
				<defs>
					<rect id="SVGID_00000132769639344298209160000004925988825332478364_" x="127.3" y="73.8" width="1000" height="272.3"/>
				</defs>
				<clipPath id="SVGID_00000096020580416795548620000001588292035682596739_">
					<use xlink:href="#SVGID_00000132769639344298209160000004925988825332478364_"  style="overflow:visible;"/>
				</clipPath>
				<path style="clip-path:url(#SVGID_00000096020580416795548620000001588292035682596739_);fill:#F7F8F9;" d="M797.4,323.2
					c-42,0-78.2-14.9-78.2-66.7V193c0-39.4,18.1-69.1,76.6-69.1c13,0,54.2,4,54.2,4v42.2c0,0-29.8-4-46.3-4
					c-19.2,0-32.6,5.2-32.6,35.3V248c0,30.5,9,32.9,34.2,32.9c16.5,0,48.3-4.4,48.3-4.4v41.4C853.5,318,828.8,323.2,797.4,323.2"/>
			</g>
			<g>
				<defs>
					<rect id="SVGID_00000041976035936412292450000003544456251832088249_" x="127.3" y="73.8" width="1000" height="272.3"/>
				</defs>
				<clipPath id="SVGID_00000065076786157994070980000007110125212186984110_">
					<use xlink:href="#SVGID_00000041976035936412292450000003544456251832088249_"  style="overflow:visible;"/>
				</clipPath>
				<path style="clip-path:url(#SVGID_00000065076786157994070980000007110125212186984110_);fill:#F7F8F9;" d="M995.7,319.6
					c-7.5,2-29.1,3.2-36.5,3.2c-33.4,0-59.3-18.5-59.3-59.8v-96h-27.5v-38.6h27.5V73.8h27.7h24.2v54.6H997V167h-45.2v73.9
					c0,21.7-1.2,36.1,19.6,36.1c8.6,0,19.2-1.2,24.3-2V319.6z"/>
			</g>
			<g>
				<defs>
					<rect id="SVGID_00000169525860207083264240000009303632089297110452_" x="127.3" y="73.8" width="1000" height="272.3"/>
				</defs>
				<clipPath id="SVGID_00000037679739756601835550000011425135687788016022_">
					<use xlink:href="#SVGID_00000169525860207083264240000009303632089297110452_"  style="overflow:visible;"/>
				</clipPath>
				<path style="clip-path:url(#SVGID_00000037679739756601835550000011425135687788016022_);fill:#F7F8F9;" d="M1019.7,318.8V128.4
					h51.8v44.2h2c0,0,7.9-43.8,53.8-46.2V183c-41.6-0.8-54.6,34.9-55.8,37.8v98H1019.7z"/>
			</g>
			<g>
				<defs>
					<rect id="SVGID_00000084512423591363600380000017577931984385586078_" x="127.3" y="73.8" width="1000" height="272.3"/>
				</defs>
				<clipPath id="SVGID_00000172407099945430739580000000750958842197588379_">
					<use xlink:href="#SVGID_00000084512423591363600380000017577931984385586078_"  style="overflow:visible;"/>
				</clipPath>
				<path style="clip-path:url(#SVGID_00000172407099945430739580000000750958842197588379_);fill:#B90AF0;" d="M316.3,342.3
					l-17.2-72.1c-0.2-1-1-1.8-2.1-2.2c-4.1-1.5-21.3-7.2-28.3-26.5l0,0c-11.2-30.8-29.1-95-38.2-140.4h-17.4
					c-9.1,45.4-27,109.5-38.2,140.4c-7,19.3-24.3,25-28.3,26.5c-1.1,0.4-1.9,1.3-2.3,2.2l-16.9,72.1c-0.7,2,1.2,3.9,3.7,3.8
					c4-0.1,19.2-1.6,26.5-7.3c18.1-14.4,33.8-34.5,56.4-39.1c4.3-0.9,8.3-1.1,12.1-0.8c23.8,1.9,40.3,24.3,59.9,39.8
					c7.3,5.8,22.5,7.2,26.4,7.3C314.9,346.2,316.8,344.3,316.3,342.3"/>
			</g>
		</g>
	</g>
</g>
</svg>
