<?xml version="1.0" encoding="utf-8"?>
<!-- Generator: Adobe Illustrator 25.4.1, SVG Export Plug-In . SVG Version: 6.00 Build 0)  -->
<svg version="1.1" id="Layer_1" xmlns="http://www.w3.org/2000/svg" xmlns:xlink="http://www.w3.org/1999/xlink" x="0px" y="0px"
	 viewBox="0 0 1291 439" style="enable-background:new 0 0 1291 439;" xml:space="preserve">
<style type="text/css">
	.st0{stroke:#000000;stroke-miterlimit:10;}
	.st1{clip-path:url(#SVGID_00000013876109615800203150000000197276170322236073_);fill:#F7F8F9;}
	.st2{clip-path:url(#SVGID_00000176020960381751907650000008061168092274667416_);}
	.st3{clip-path:url(#SVGID_00000180333559892868423310000002674360758144630963_);fill:#F7F8F9;}
	.st4{clip-path:url(#SVGID_00000006690436364411712030000004955892339545205131_);fill:#F7F8F9;}
	.st5{clip-path:url(#SVGID_00000029032929745496563780000004635376087054340757_);fill:#F7F8F9;}
	.st6{clip-path:url(#SVGID_00000059298880990969194310000010335122970512786096_);fill:#F7F8F9;}
	.st7{clip-path:url(#SVGID_00000117655097377053818780000017936689283048448680_);fill:#B90AF0;}
</style>
<g id="Artwork_5_00000067200003304592795000000003670500765105612430_">
	<rect x="0.5" class="st0" width="1291" height="439"/>
	<g>
		<g>
			<defs>
				<rect id="SVGID_1_" x="127.5" y="73" width="1000" height="272.3"/>
			</defs>
			<clipPath id="SVGID_00000061444637528654708160000009959576264758841497_">
				<use xlink:href="#SVGID_1_"  style="overflow:visible;"/>
			</clipPath>
			<polygon style="clip-path:url(#SVGID_00000061444637528654708160000009959576264758841497_);fill:#F7F8F9;" points="479.5,127.6 
				532.1,127.6 471.6,318 408,318 347.5,127.6 400.1,127.6 437.8,259.8 441.7,259.8 			"/>
		</g>
		<g>
			<defs>
				<rect id="SVGID_00000171704195511849304540000011183130490970089650_" x="127.5" y="73" width="1000" height="272.3"/>
			</defs>
			<clipPath id="SVGID_00000053514189569906988440000018109157007277241253_">
				<use xlink:href="#SVGID_00000171704195511849304540000011183130490970089650_"  style="overflow:visible;"/>
			</clipPath>
			<g style="clip-path:url(#SVGID_00000053514189569906988440000018109157007277241253_);">
				<g>
					<defs>
						<rect id="SVGID_00000088816507220654779860000000138551099366241675_" x="127.5" y="73" width="1000" height="272.3"/>
					</defs>
					<clipPath id="SVGID_00000155852502453332127880000002272130120802316969_">
						<use xlink:href="#SVGID_00000088816507220654779860000000138551099366241675_"  style="overflow:visible;"/>
					</clipPath>
					<path style="clip-path:url(#SVGID_00000155852502453332127880000002272130120802316969_);fill:#F7F8F9;" d="M696.6,190.3v51
						H587.5v4.8c0,28.1,11,34.1,40.1,34.1c19.5,0,47.9-2.4,62.5-4.8c0.2,0,0.3,0.1,0.3,0.3v42c0,0.1-0.1,0.2-0.2,0.3
						c-16.5,2.4-43.9,4.4-65.4,4.4c-46.3,0-89.1-15.7-89.1-72.3v-59.8c0-39.4,20.4-67.1,80.9-67.1
						C677,123.2,696.6,150.9,696.6,190.3 M644.7,204.3c0.3,0,0.5-0.2,0.5-0.5v-11.2c0-16.5-4.3-27.3-28.7-27.3
						c-20,0-29.1,6.8-29.1,28.1v10.4c0,0.3,0.2,0.5,0.5,0.5H644.7z"/>
				</g>
				<g>
					<defs>
						<rect id="SVGID_00000127737584783690329010000010486881492113810847_" x="127.5" y="73" width="1000" height="272.3"/>
					</defs>
					<clipPath id="SVGID_00000147903348218895098540000009700243381482800260_">
						<use xlink:href="#SVGID_00000127737584783690329010000010486881492113810847_"  style="overflow:visible;"/>
					</clipPath>
					<path style="clip-path:url(#SVGID_00000147903348218895098540000009700243381482800260_);fill:#F7F8F9;" d="M797.6,322.4
						c-42,0-78.2-14.9-78.2-66.7v-63.5c0-39.4,18.1-69.1,76.6-69.1c13,0,54.2,4,54.2,4v42.2c0,0-29.8-4-46.3-4
						c-19.2,0-32.6,5.2-32.6,35.3v46.6c0,30.5,9,32.9,34.2,32.9c16.5,0,48.3-4.4,48.3-4.4v41.4C853.7,317.2,829,322.4,797.6,322.4"
						/>
				</g>
				<g>
					<defs>
						<rect id="SVGID_00000014613856134634917650000004274093716653985953_" x="127.5" y="73" width="1000" height="272.3"/>
					</defs>
					<clipPath id="SVGID_00000147910568720844655640000002713016614929953947_">
						<use xlink:href="#SVGID_00000014613856134634917650000004274093716653985953_"  style="overflow:visible;"/>
					</clipPath>
					<path style="clip-path:url(#SVGID_00000147910568720844655640000002713016614929953947_);fill:#F7F8F9;" d="M995.9,318.8
						c-7.5,2-29.1,3.2-36.5,3.2c-33.4,0-59.3-18.5-59.3-59.8v-96h-27.5v-38.6h27.5V73h27.7H952v54.6h45.2v38.6H952v73.9
						c0,21.7-1.2,36.1,19.6,36.1c8.6,0,19.2-1.2,24.3-2V318.8z"/>
				</g>
				<g>
					<defs>
						<rect id="SVGID_00000154406797636893676260000001090727864606815361_" x="127.5" y="73" width="1000" height="272.3"/>
					</defs>
					<clipPath id="SVGID_00000065061680232718680340000012838232318278373512_">
						<use xlink:href="#SVGID_00000154406797636893676260000001090727864606815361_"  style="overflow:visible;"/>
					</clipPath>
					<path style="clip-path:url(#SVGID_00000065061680232718680340000012838232318278373512_);fill:#F7F8F9;" d="M1019.9,318V127.6
						h51.8v44.2h2c0,0,7.9-43.8,53.8-46.2v56.6c-41.6-0.8-54.6,34.9-55.8,37.8v98H1019.9z"/>
				</g>
				<g>
					<defs>
						<rect id="SVGID_00000148621387766665446570000004328439710158871729_" x="127.5" y="73" width="1000" height="272.3"/>
					</defs>
					<clipPath id="SVGID_00000096060043522314884280000005319777420024828351_">
						<use xlink:href="#SVGID_00000148621387766665446570000004328439710158871729_"  style="overflow:visible;"/>
					</clipPath>
					<path style="clip-path:url(#SVGID_00000096060043522314884280000005319777420024828351_);fill:#B90AF0;" d="M316.5,341.5
						l-17.2-72.1c-0.2-1-1-1.8-2.1-2.2c-4.1-1.5-21.3-7.2-28.3-26.5l0,0c-11.2-30.8-29.1-95-38.2-140.4h-17.4
						c-9.1,45.4-27,109.5-38.2,140.4c-7,19.3-24.3,25-28.3,26.5c-1.1,0.4-1.9,1.3-2.3,2.2l-16.9,72.1c-0.7,2,1.2,3.9,3.7,3.8
						c4-0.1,19.2-1.6,26.5-7.3c18.1-14.4,33.8-34.5,56.4-39.1c4.3-0.9,8.3-1.1,12.1-0.8c23.8,1.9,40.3,24.3,59.9,39.8
						c7.3,5.8,22.5,7.2,26.4,7.3C315.1,345.4,317,343.5,316.5,341.5"/>
				</g>
			</g>
		</g>
	</g>
</g>
</svg>
