<?xml version="1.0" encoding="utf-8"?>
<!-- Generator: Adobe Illustrator 24.0.2, SVG Export Plug-In . SVG Version: 6.00 Build 0)  -->
<svg version="1.1" xmlns="http://www.w3.org/2000/svg" xmlns:xlink="http://www.w3.org/1999/xlink" x="0px" y="0px"
	 viewBox="0 0 876.4 263.1" style="enable-background:new 0 0 876.4 263.1;" xml:space="preserve">
<style type="text/css">
	.st0{fill:#727174;}
	.st1{fill:#F26A3B;}
</style>
<g id="elipsis">
	<g>
		<path class="st0" d="M403.9,228c1.5,0,2.8,0.5,3.9,1.6c1.1,1.1,1.6,2.4,1.6,3.9s-0.5,2.8-1.6,3.9c-1.1,1.1-2.4,1.6-3.9,1.6
			s-2.8-0.5-3.9-1.6c-1.1-1.1-1.6-2.4-1.6-3.9s0.5-2.8,1.6-3.9C401,228.6,402.3,228,403.9,228z M403.9,229.7c-1.1,0-2,0.4-2.7,1.1
			c-0.8,0.8-1.1,1.7-1.1,2.7c0,1.1,0.4,2,1.1,2.7c0.8,0.8,1.7,1.1,2.7,1.1c1.1,0,2-0.4,2.7-1.1c0.8-0.8,1.1-1.7,1.1-2.7
			c0-1.1-0.4-2-1.1-2.7C405.8,230.1,404.9,229.7,403.9,229.7z"/>
	</g>
</g>
<g id="Reporting__x26__Analysis">
	<path class="st0" d="M427.9,233.6v10.8h-1.6v-23.2h7c7.3,0,10.5,2.2,10.5,6.1c0,3.6-2.8,5.3-7,6.1l8.6,11h-2l-8.3-10.8H427.9z
		 M442.2,227.4c0-3.3-2.4-5.1-8.9-5.1h-5.3v10.3h5.8C439,232.6,442.2,231,442.2,227.4z"/>
	<path class="st0" d="M453,222.3v9.4h11.4v1.1H453v10.6h13.7v1.1h-15.3v-23.2h15l-0.2,1.1H453z"/>
	<path class="st0" d="M490.4,228c0,5.1-4.7,7.1-11.3,7.1h-4.8v9.4h-1.6v-23.2h6.6C486.3,221.2,490.4,223.3,490.4,228z M488.7,228.1
		c0-4.3-3.4-5.8-9.4-5.8h-5V234h4.9C484.8,234,488.7,232.6,488.7,228.1z"/>
	<path class="st0" d="M519.5,232.9c0,7.6-4.7,11.9-12.3,11.9c-7.3,0-12.3-4.2-12.3-11.9c0-7.7,5-12.1,12.3-12.1
		C514.6,220.9,519.5,225,519.5,232.9z M496.6,232.9c0,7.1,4.4,10.8,10.7,10.8c6.6,0,10.7-3.7,10.7-10.8c0-7.3-4.3-10.9-10.7-10.9
		C500.9,222,496.6,225.6,496.6,232.9z"/>
	<path class="st0" d="M528.6,233.6v10.8h-1.6v-23.2h7c7.3,0,10.5,2.2,10.5,6.1c0,3.6-2.8,5.3-7,6.1l8.6,11h-2l-8.3-10.8H528.6z
		 M542.9,227.4c0-3.3-2.4-5.1-8.9-5.1h-5.3v10.3h5.8C539.8,232.6,542.9,231,542.9,227.4z"/>
	<path class="st0" d="M557.9,222.4v22.1h-1.6v-22.1h-9.4v-1.1h20.7l-0.3,1.1H557.9z"/>
	<path class="st0" d="M572.2,244.5v-23.2h1.6v23.2H572.2z"/>
	<path class="st0" d="M600.8,244.5l-16.1-21.9c0.1,1.4,0.2,3.2,0.2,7.3v14.6h-1.5v-23.2h2l16.1,21.9c-0.1-1.3-0.2-3.6-0.2-6.7v-15.2
		h1.5v23.2H600.8z"/>
	<path class="st0" d="M630.8,223l-1,0.8c-2.2-1.3-4.2-1.8-7.1-1.8c-5.2,0-10.8,3-10.8,10.7c0,7.5,4.5,11,11,11
		c2.9,0,4.9-0.5,6.9-1.3v-9.1h-6.4l-0.2-1.1h8.2V243c-2.6,1.2-5.6,1.8-8.5,1.8c-7.4,0-12.6-4.1-12.6-12.1c0-8.1,6.4-11.9,12.4-11.9
		C626.2,220.9,628.4,221.6,630.8,223z"/>
	<path class="st0" d="M665.9,225.8c0,2.6-2.5,4.3-7.4,6.3l10.2,7.2c1.5-2.2,2.5-4.3,3.2-7l1.5,0.3c-0.8,2.9-2,5.2-3.7,7.4l6,4.2
		l-1.2,0.6l-5.6-3.8c-2.3,2.2-5.2,3.8-10.2,3.8c-5,0-9.1-2.4-9.1-6.1c0-3.2,2.5-5,6.6-6.8c-3.1-2.2-4.6-3.6-4.6-6
		c0-2.9,3-5.1,7.2-5.1C663,220.9,665.9,222.9,665.9,225.8z M651.2,238.7c0,3,3.2,5,7.5,5c4.4,0,7-1.4,9.2-3.5l-10.6-7.6
		C653.4,234.3,651.2,236.1,651.2,238.7z M653.2,226c0,1.7,0.4,2.6,4.3,5.5c4.7-1.8,6.8-3.4,6.8-5.6c0-2.6-2.5-4-5.4-4
		C655.3,221.9,653.2,223.8,653.2,226z"/>
	<path class="st0" d="M694.6,237.8l-3,6.7H690l10.6-23.2h2l10.6,23.2h-1.7l-3-6.7H694.6z M701.6,222.2l-6.5,14.5H708L701.6,222.2z"
		/>
	<path class="st0" d="M735.9,244.5l-16.1-21.9c0.1,1.4,0.2,3.2,0.2,7.3v14.6h-1.5v-23.2h2l16.1,21.9c-0.1-1.3-0.2-3.6-0.2-6.7v-15.2
		h1.5v23.2H735.9z"/>
	<path class="st0" d="M747.7,237.8l-3,6.7h-1.6l10.6-23.2h2l10.6,23.2h-1.7l-3-6.7H747.7z M754.7,222.2l-6.5,14.5h12.9L754.7,222.2z
		"/>
	<path class="st0" d="M786.2,243.4l-0.3,1.1h-14.4v-23.2h1.6v22.1H786.2z"/>
	<path class="st0" d="M793.5,244.5h-1.6v-9.2l-9.8-14h1.8l8.9,13l8.7-13h1.8l-9.7,14V244.5z"/>
	<path class="st0" d="M821.4,223.4l-1,0.8c-2.3-1.5-4.3-2.2-7.4-2.2c-4.3,0-7,1.8-7,4.4c0,2.7,2,3.8,7.5,5.1c6,1.4,8.8,2.9,8.8,6.7
		c0,4-4,6.6-9.7,6.6c-4.1,0-6.9-1.1-9.5-2.8l1-0.8c2.2,1.5,4.6,2.6,8.4,2.6c4.9,0,8.2-2.1,8.2-5.5c0-3.2-2.1-4.5-7.8-5.8
		c-6.3-1.5-8.6-3-8.6-6.1c0-3.1,3.4-5.5,8.6-5.5C816.9,220.9,819.2,221.8,821.4,223.4z"/>
	<path class="st0" d="M829.5,244.5v-23.2h1.6v23.2H829.5z"/>
	<path class="st0" d="M855.6,223.4l-1,0.8c-2.3-1.5-4.3-2.2-7.4-2.2c-4.3,0-7,1.8-7,4.4c0,2.7,2,3.8,7.5,5.1c6,1.4,8.8,2.9,8.8,6.7
		c0,4-4,6.6-9.7,6.6c-4.1,0-6.9-1.1-9.5-2.8l1-0.8c2.2,1.5,4.6,2.6,8.4,2.6c4.9,0,8.2-2.1,8.2-5.5c0-3.2-2.1-4.5-7.8-5.8
		c-6.3-1.5-8.6-3-8.6-6.1c0-3.1,3.4-5.5,8.6-5.5C851.1,220.9,853.4,221.8,855.6,223.4z"/>
</g>
<g id="Threat_Simulation">
	<path class="st0" d="M17.8,222.4v22.1h-1.6v-22.1H6.8v-1.1h20.7l-0.3,1.1H17.8z"/>
	<path class="st0" d="M33.7,232.8v11.7h-1.6v-23.2h1.6v10.4h16.1v-10.4h1.6v23.2h-1.6v-11.7H33.7z"/>
	<path class="st0" d="M62.6,233.6v10.8H61v-23.2h7c7.3,0,10.5,2.2,10.5,6.1c0,3.6-2.8,5.3-7,6.1l8.6,11h-2l-8.3-10.8H62.6z
		 M76.8,227.4c0-3.3-2.4-5.1-8.9-5.1h-5.3v10.3h5.8C73.7,232.6,76.8,231,76.8,227.4z"/>
	<path class="st0" d="M87.6,222.3v9.4H99v1.1H87.6v10.6h13.7v1.1H86v-23.2h15l-0.2,1.1H87.6z"/>
	<path class="st0" d="M107.6,237.8l-3,6.7H103l10.6-23.2h2l10.6,23.2h-1.7l-3-6.7H107.6z M114.6,222.2l-6.5,14.5H121L114.6,222.2z"
		/>
	<path class="st0" d="M135.5,222.4v22.1h-1.6v-22.1h-9.4v-1.1h20.7l-0.3,1.1H135.5z"/>
	<path class="st0" d="M176.6,223.4l-1,0.8c-2.3-1.5-4.3-2.2-7.4-2.2c-4.3,0-7,1.8-7,4.4c0,2.7,2,3.8,7.5,5.1c6,1.4,8.8,2.9,8.8,6.7
		c0,4-4,6.6-9.7,6.6c-4.1,0-6.9-1.1-9.5-2.8l1-0.8c2.2,1.5,4.6,2.6,8.4,2.6c4.9,0,8.2-2.1,8.2-5.5c0-3.2-2.1-4.5-7.8-5.8
		c-6.3-1.5-8.6-3-8.6-6.1c0-3.1,3.4-5.5,8.6-5.5C172.1,220.9,174.4,221.8,176.6,223.4z"/>
	<path class="st0" d="M184.7,244.5v-23.2h1.6v23.2H184.7z"/>
	<path class="st0" d="M220.2,244.5l-1.7-11.6c-0.5-3.8-1.2-8.3-1.4-10.6l-8.6,19.3H207l-8.8-19.3c-0.2,2-0.9,6.6-1.4,10.3l-1.5,11.9
		h-1.5l3.2-23.2h2.4l8.5,19l8.3-19h2.4l3.3,23.2H220.2z"/>
	<path class="st0" d="M238.4,244.8c-6.8,0-9.7-3.1-9.7-7.5v-16.1h1.6v16c0,3.8,2.4,6.5,8.1,6.5c5.8,0,8-2.7,8-6.5v-16h1.6v16.1
		C248.1,241.7,245.1,244.8,238.4,244.8z"/>
	<path class="st0" d="M271.8,243.4l-0.3,1.1h-14.4v-23.2h1.6v22.1H271.8z"/>
	<path class="st0" d="M277,237.8l-3,6.7h-1.6l10.6-23.2h2l10.6,23.2h-1.7l-3-6.7H277z M284,222.2l-6.5,14.5h12.9L284,222.2z"/>
	<path class="st0" d="M304.9,222.4v22.1h-1.6v-22.1h-9.4v-1.1h20.7l-0.3,1.1H304.9z"/>
	<path class="st0" d="M319.1,244.5v-23.2h1.6v23.2H319.1z"/>
	<path class="st0" d="M352.9,232.9c0,7.6-4.7,11.9-12.3,11.9c-7.3,0-12.3-4.2-12.3-11.9c0-7.7,5-12.1,12.3-12.1
		C347.9,220.9,352.9,225,352.9,232.9z M329.9,232.9c0,7.1,4.4,10.8,10.7,10.8c6.6,0,10.7-3.7,10.7-10.8c0-7.3-4.3-10.9-10.7-10.9
		C334.3,222,329.9,225.6,329.9,232.9z"/>
	<path class="st0" d="M377.8,244.5l-16.1-21.9c0.1,1.4,0.2,3.2,0.2,7.3v14.6h-1.5v-23.2h2l16.1,21.9c-0.1-1.3-0.2-3.6-0.2-6.7v-15.2
		h1.5v23.2H377.8z"/>
</g>
<g id="green_arrow">
	<path class="st1" d="M226.8,103.4H778v4.7H226.8V103.4z"/>
	<path d="M726.3,46.8"/>
	<g>
		<polygon class="st1" points="731.1,20.2 729.7,20.2 709.1,20.2 730.6,51.8 768,106.4 705.6,188.3 728.1,188.3 786.8,105.6 		"/>
	</g>
</g>
<g id="R">
	<g>
		<path d="M736.1,20.2l55.8,85.5l-58.7,82.5h22.4l54-71.2h4.2v71.2h45.7V20.2H736.1z M817.9,85.9h-17L778,51.4h39.9V85.9z"/>
	</g>
</g>
<g id="T">
	<g>
		<rect x="639.6" y="120.2" width="46.4" height="68.1"/>
	</g>
	<g>
		<polygon points="597,20.2 597,51.8 639.6,51.8 639.6,90.8 686,90.8 686,51.8 724.8,51.8 703.8,20.2 		"/>
	</g>
</g>
<g id="C">
	<path class="st0" d="M391.1,120.4c8.8,38.1,50.9,66.1,106.9,66.1c52.5,0,82.2-23.6,82.2-23.6l4.3,3.5c0,0-30.7,24.8-86.6,24.8
		c-60.2,0-104.8-30.2-113.7-70.7L391.1,120.4z M384.2,91.1c8.6-40.4,54.2-69.4,112.5-69.4c53.8,0,81.9,20.6,81.9,20.6l-4,3.5
		c0,0-27.4-19.7-77.5-19.7c-54.6,0-97.5,26.7-106.1,64.9L384.2,91.1z"/>
</g>
<g id="E">
	<rect x="226.8" y="24.5" class="st0" width="124" height="4.4"/>
	<rect x="226.8" y="183.6" class="st0" width="130.3" height="4.7"/>
</g>
<g id="V">
	<g>
		<g>
			<path class="st0" d="M8.4,24.5h7l86.2,159.3l86.6-159.3h7l-88.9,163.8h-8.7L8.4,24.5z"/>
		</g>
	</g>
</g>
</svg>
