<?xml version="1.0" encoding="utf-8"?>
<!-- Generator: Adobe Illustrator 25.4.1, SVG Export Plug-In . SVG Version: 6.00 Build 0)  -->
<svg version="1.1" id="Layer_1" xmlns="http://www.w3.org/2000/svg" xmlns:xlink="http://www.w3.org/1999/xlink" x="0px" y="0px"
	 viewBox="0 0 1000 272" style="enable-background:new 0 0 1000 272;" xml:space="preserve">
<style type="text/css">
	.st0{stroke:#000000;stroke-miterlimit:10;}
	.st1{clip-path:url(#SVGID_00000098928362801569780470000007505050255585469853_);fill:#F7F8F9;}
	.st2{clip-path:url(#SVGID_00000174573351667935162460000004077888820704054715_);}
	.st3{clip-path:url(#SVGID_00000103227559416226085100000006458949241917001149_);fill:#F7F8F9;}
	.st4{clip-path:url(#SVGID_00000005978248931173424710000013002014233396168073_);fill:#F7F8F9;}
	.st5{clip-path:url(#SVGID_00000031187736036264009900000001113329669359055769_);fill:#F7F8F9;}
	.st6{clip-path:url(#SVGID_00000036220244774514704510000014438217373543803556_);fill:#F7F8F9;}
	.st7{clip-path:url(#SVGID_00000161620316001865792840000000006908785888029062_);fill:#B90AF0;}
</style>
<rect x="-127" y="-73" class="st0" width="1313" height="436"/>
<g id="Artwork_5_00000067200003304592795000000003670500765105612430_">
	<g>
		<g>
			<defs>
				<rect id="SVGID_1_" width="1000" height="272.3"/>
			</defs>
			<clipPath id="SVGID_00000174599070242553850560000008344967743031523511_">
				<use xlink:href="#SVGID_1_"  style="overflow:visible;"/>
			</clipPath>
			<polygon style="clip-path:url(#SVGID_00000174599070242553850560000008344967743031523511_);fill:#F7F8F9;" points="352,54.6 
				404.6,54.6 344.1,245 280.5,245 220,54.6 272.6,54.6 310.3,186.8 314.2,186.8 			"/>
		</g>
		<g>
			<defs>
				<rect id="SVGID_00000145037988583980961630000002111177164660629659_" width="1000" height="272.3"/>
			</defs>
			<clipPath id="SVGID_00000043419126375834344670000006960623216502924199_">
				<use xlink:href="#SVGID_00000145037988583980961630000002111177164660629659_"  style="overflow:visible;"/>
			</clipPath>
			<g style="clip-path:url(#SVGID_00000043419126375834344670000006960623216502924199_);">
				<g>
					<defs>
						<rect id="SVGID_00000095321337850915236230000016317028539721327009_" width="1000" height="272.3"/>
					</defs>
					<clipPath id="SVGID_00000162313175335253884690000001791720367515158177_">
						<use xlink:href="#SVGID_00000095321337850915236230000016317028539721327009_"  style="overflow:visible;"/>
					</clipPath>
					<path style="clip-path:url(#SVGID_00000162313175335253884690000001791720367515158177_);fill:#F7F8F9;" d="M569.1,117.3v51
						H460v4.8c0,28.1,11,34.1,40.1,34.1c19.5,0,47.9-2.4,62.5-4.8c0.2,0,0.3,0.1,0.3,0.3v42c0,0.1-0.1,0.2-0.2,0.3
						c-16.5,2.4-43.9,4.4-65.4,4.4c-46.3,0-89.1-15.7-89.1-72.3v-59.8c0-39.4,20.4-67.1,80.9-67.1
						C549.5,50.2,569.1,77.9,569.1,117.3 M517.2,131.3c0.3,0,0.5-0.2,0.5-0.5v-11.2c0-16.5-4.3-27.3-28.7-27.3
						c-20,0-29.1,6.8-29.1,28.1v10.4c0,0.3,0.2,0.5,0.5,0.5H517.2z"/>
				</g>
				<g>
					<defs>
						<rect id="SVGID_00000044874457222361189780000009730116740265398704_" width="1000" height="272.3"/>
					</defs>
					<clipPath id="SVGID_00000129899425192921479280000004059597343079265181_">
						<use xlink:href="#SVGID_00000044874457222361189780000009730116740265398704_"  style="overflow:visible;"/>
					</clipPath>
					<path style="clip-path:url(#SVGID_00000129899425192921479280000004059597343079265181_);fill:#F7F8F9;" d="M670.1,249.4
						c-42,0-78.2-14.9-78.2-66.7v-63.5c0-39.4,18.1-69.1,76.6-69.1c13,0,54.2,4,54.2,4v42.2c0,0-29.8-4-46.3-4
						c-19.2,0-32.6,5.2-32.6,35.3v46.6c0,30.5,9,32.9,34.2,32.9c16.5,0,48.3-4.4,48.3-4.4v41.4C726.2,244.2,701.5,249.4,670.1,249.4
						"/>
				</g>
				<g>
					<defs>
						<rect id="SVGID_00000142171973800420269930000007645532754520054682_" width="1000" height="272.3"/>
					</defs>
					<clipPath id="SVGID_00000143580924676819012260000003616291215929656228_">
						<use xlink:href="#SVGID_00000142171973800420269930000007645532754520054682_"  style="overflow:visible;"/>
					</clipPath>
					<path style="clip-path:url(#SVGID_00000143580924676819012260000003616291215929656228_);fill:#F7F8F9;" d="M868.4,245.8
						c-7.5,2-29.1,3.2-36.5,3.2c-33.4,0-59.3-18.5-59.3-59.8v-96h-27.5V54.6h27.5V0h27.7h24.2v54.6h45.2v38.6h-45.2v73.9
						c0,21.7-1.2,36.1,19.6,36.1c8.6,0,19.2-1.2,24.3-2V245.8z"/>
				</g>
				<g>
					<defs>
						<rect id="SVGID_00000119102228581269554820000008924324240400354722_" width="1000" height="272.3"/>
					</defs>
					<clipPath id="SVGID_00000054250520802353182290000004369098548571445161_">
						<use xlink:href="#SVGID_00000119102228581269554820000008924324240400354722_"  style="overflow:visible;"/>
					</clipPath>
					<path style="clip-path:url(#SVGID_00000054250520802353182290000004369098548571445161_);fill:#F7F8F9;" d="M892.4,245V54.6
						h51.8v44.2h2c0,0,7.9-43.8,53.8-46.2v56.6c-41.6-0.8-54.6,34.9-55.8,37.8v98H892.4z"/>
				</g>
				<g>
					<defs>
						<rect id="SVGID_00000007423114698951694300000016824049317662367400_" width="1000" height="272.3"/>
					</defs>
					<clipPath id="SVGID_00000139987993385789835250000009894706804853520311_">
						<use xlink:href="#SVGID_00000007423114698951694300000016824049317662367400_"  style="overflow:visible;"/>
					</clipPath>
					<path style="clip-path:url(#SVGID_00000139987993385789835250000009894706804853520311_);fill:#B90AF0;" d="M189,268.5
						l-17.2-72.1c-0.2-1-1-1.8-2.1-2.2c-4.1-1.5-21.3-7.2-28.3-26.5l0,0c-11.2-30.8-29.1-95-38.2-140.4H85.8
						c-9.1,45.4-27,109.5-38.2,140.4c-7,19.3-24.3,25-28.3,26.5c-1.1,0.4-1.9,1.3-2.3,2.2L0.1,268.5c-0.7,2,1.2,3.9,3.7,3.8
						c4-0.1,19.2-1.6,26.5-7.3c18.1-14.4,33.8-34.5,56.4-39.1c4.3-0.9,8.3-1.1,12.1-0.8c23.8,1.9,40.3,24.3,59.9,39.8
						c7.3,5.8,22.5,7.2,26.4,7.3C187.6,272.4,189.5,270.5,189,268.5"/>
				</g>
			</g>
		</g>
	</g>
</g>
</svg>
